<svg id="visual" viewBox="0 0 900 675" width="900" height="675" xmlns="http://www.w3.org/2000/svg" xmlns:xlink="http://www.w3.org/1999/xlink" version="1.1"><rect x="0" y="0" width="900" height="675" fill="#002CE1"></rect><defs><linearGradient id="grad1_0" x1="25%" y1="0%" x2="100%" y2="100%"><stop offset="23.333333333333336%" stop-color="#002ce1" stop-opacity="1"></stop><stop offset="76.66666666666666%" stop-color="#002ce1" stop-opacity="1"></stop></linearGradient></defs><defs><linearGradient id="grad2_0" x1="0%" y1="0%" x2="75%" y2="100%"><stop offset="23.333333333333336%" stop-color="#002ce1" stop-opacity="1"></stop><stop offset="76.66666666666666%" stop-color="#002ce1" stop-opacity="1"></stop></linearGradient></defs><g transform="translate(900, 0)"><path d="M0 506.3C-66.8 501 -133.7 495.8 -193.7 467.7C-253.8 439.6 -307.2 388.5 -331.6 331.6C-356.1 274.7 -351.7 212 -376 155.8C-400.3 99.5 -453.3 49.8 -506.2 0L0 0Z" fill="#0034E8"></path></g><g transform="translate(0, 675)"><path d="M0 -506.2C53.8 -471.2 107.5 -436.1 173 -417.6C238.4 -399.1 315.6 -397.1 358 -358C400.3 -318.9 407.9 -242.6 426.8 -176.8C445.7 -111 476 -55.5 506.3 0L0 0Z" fill="#0034E8"></path></g></svg>